<?xml version="1.0" encoding="UTF-8"?>
<svg width="1001px" height="327px" viewBox="0 0 1001 327" version="1.1" xmlns="http://www.w3.org/2000/svg" xmlns:xlink="http://www.w3.org/1999/xlink">
    <!-- Generator: Sketch 53.2 (72643) - https://sketchapp.com -->
    <title>Logo Blue</title>
    <desc>Created with Sketch.</desc>
    <defs>
        <linearGradient x1="22.0401554%" y1="-4.11582661%" x2="16.5652927%" y2="104.247516%" id="linearGradient-1">
            <stop stop-color="#1E3BBE" offset="0%"></stop>
            <stop stop-color="#253491" offset="100%"></stop>
        </linearGradient>
        <linearGradient x1="42.8087192%" y1="-56.9428451%" x2="25.8873457%" y2="160.83892%" id="linearGradient-2">
            <stop stop-color="#1E3BBE" offset="0%"></stop>
            <stop stop-color="#253491" offset="100%"></stop>
        </linearGradient>
        <linearGradient x1="44.1505107%" y1="-56.9428451%" x2="30.3864266%" y2="160.83892%" id="linearGradient-3">
            <stop stop-color="#1E3BBE" offset="0%"></stop>
            <stop stop-color="#253491" offset="100%"></stop>
        </linearGradient>
        <linearGradient x1="40.9792573%" y1="-56.9428451%" x2="19.7530864%" y2="160.83892%" id="linearGradient-4">
            <stop stop-color="#1E3BBE" offset="0%"></stop>
            <stop stop-color="#253491" offset="100%"></stop>
        </linearGradient>
        <linearGradient x1="44.1750625%" y1="-56.9428451%" x2="30.46875%" y2="160.83892%" id="linearGradient-5">
            <stop stop-color="#1E3BBE" offset="0%"></stop>
            <stop stop-color="#253491" offset="100%"></stop>
        </linearGradient>
    </defs>
    <g id="Logo-Blue" stroke="none" stroke-width="1" fill="none" fill-rule="evenodd">
        <g id="Lowercase-with-different-icons" transform="translate(-140.000000, -273.000000)">
            <circle id="Oval" fill="url(#linearGradient-1)" fill-rule="nonzero" cx="303.5" cy="436.5" r="163.5"></circle>
            <path d="M584.790368,507 L532.665722,507 C529.45513,507 527.849858,505.400016 527.849858,502.2 L527.849858,488.364706 C527.849858,485.352926 529.45513,483.847059 532.665722,483.847059 L580.25779,483.847059 C592.533584,483.847059 598.671388,479.611807 598.671388,471.141176 L598.671388,467.752941 C598.671388,460.223492 594.233283,454.482373 585.356941,450.529412 L554.478754,435.847059 C544.846977,431.329389 537.859323,426.341204 533.515581,420.882353 C529.171839,415.423502 527,408.270632 527,399.423529 C527,375.141055 540.50317,363 567.509915,363 L614.535411,363 C617.557144,363 619.067989,364.599984 619.067989,367.8 L619.067989,381.635294 C619.067989,384.83531 617.557144,386.435294 614.535411,386.435294 L573.175637,386.435294 C567.509887,386.435294 563.16621,387.42352 560.144476,389.4 C557.122742,391.37648 555.611898,393.96469 555.611898,397.164706 L555.611898,400.270588 C555.611898,406.294148 560.427714,411.564683 570.05949,416.082353 L601.220963,431.894118 C611.041598,436.223551 617.793183,441.352912 621.475921,447.282353 C625.158659,453.211794 627,460.882306 627,470.294118 C627,494.764828 612.930263,507 584.790368,507 Z" id="Path" fill="url(#linearGradient-2)" fill-rule="nonzero"></path>
            <path d="M673.335277,553 L658.431137,553 C655.244072,553 653.650564,551.397833 653.650564,548.193452 L653.650564,533.77381 C653.650564,530.380935 655.244072,528.684524 658.431137,528.684524 L664.898971,528.684524 C676.33491,528.684524 684.255584,526.422642 688.661232,521.89881 C693.066881,517.374977 696.769444,509.929615 699.769035,499.5625 L688.520627,499.5625 C685.708511,499.5625 683.74006,497.960333 682.615213,494.755952 L645.214258,367.806548 C644.464361,364.602167 645.682926,363 648.869991,363 L667.711073,363 C670.710664,363 672.585379,364.602167 673.335277,367.806548 L703.987188,478.639881 L705.112028,478.639881 L735.763939,367.806548 C736.326362,364.602167 738.201078,363 741.388143,363 L759.385595,363 C762.947608,363 764.447381,364.696412 763.884958,368.089286 L725.359162,504.08631 C721.047251,519.919722 714.954424,532.030216 707.0805,540.418155 C699.206575,548.806094 687.95828,553 673.335277,553 Z" id="Path" fill="url(#linearGradient-3)" fill-rule="nonzero"></path>
            <path d="M810.173771,507 L792.400471,507 C789.203142,507 787.604502,505.400016 787.604502,502.2 L787.604502,367.8 C787.604502,364.599984 789.203142,363 792.400471,363 L810.173771,363 C813.3711,363 814.969741,364.599984 814.969741,367.8 L814.969741,377.964706 L816.098204,377.964706 C820.612081,367.988185 830.109887,363 844.591907,363 L857.005005,363 C870.734713,363 881.266933,366.764668 888.601983,374.294118 C895.937032,381.823567 899.604502,392.646988 899.604502,406.764706 L899.604502,502.2 C899.604502,505.400016 897.911823,507 894.526416,507 L876.753116,507 C873.555787,507 871.957146,505.400016 871.957146,502.2 L871.957146,407.894118 C871.957146,393.964636 865.092396,387 851.362688,387 L838.103242,387 C822.680831,387 814.969741,394.99992 814.969741,411 L814.969741,502.2 C814.969741,505.400016 813.3711,507 810.173771,507 Z" id="Path" fill="url(#linearGradient-4)" fill-rule="nonzero"></path>
            <path d="M1020,487.8 L1020,502.482353 C1020,505.494133 1018.31252,507 1014.9375,507 L973.59375,507 C959.718681,507 948.984413,503.141215 941.390625,495.423529 C933.796837,487.705844 930,476.976539 930,463.235294 L930,406.764706 C930,392.835224 933.796837,382.058862 941.390625,374.435294 C948.984413,366.811727 959.718681,363 973.59375,363 L1014.9375,363 C1018.31252,363 1020,364.599984 1020,367.8 L1020,382.482353 C1020,385.494133 1018.31252,387 1014.9375,387 L977.53125,387 C964.031182,387 957.28125,393.964636 957.28125,407.894118 L957.28125,462.105882 C957.28125,476.035364 964.031182,483 977.53125,483 L1014.9375,483 C1018.31252,483 1020,484.599984 1020,487.8 Z" id="Path" fill="url(#linearGradient-5)" fill-rule="nonzero"></path>
            <path d="M1098.79037,507 L1046.66572,507 C1043.45513,507 1041.84986,505.400016 1041.84986,502.2 L1041.84986,488.364706 C1041.84986,485.352926 1043.45513,483.847059 1046.66572,483.847059 L1094.25779,483.847059 C1106.53358,483.847059 1112.67139,479.611807 1112.67139,471.141176 L1112.67139,467.752941 C1112.67139,460.223492 1108.23328,454.482373 1099.35694,450.529412 L1068.47875,435.847059 C1058.84698,431.329389 1051.85932,426.341204 1047.51558,420.882353 C1043.17184,415.423502 1041,408.270632 1041,399.423529 C1041,375.141055 1054.50317,363 1081.50992,363 L1128.53541,363 C1131.55714,363 1133.06799,364.599984 1133.06799,367.8 L1133.06799,381.635294 C1133.06799,384.83531 1131.55714,386.435294 1128.53541,386.435294 L1087.17564,386.435294 C1081.50989,386.435294 1077.16621,387.42352 1074.14448,389.4 C1071.12274,391.37648 1069.6119,393.96469 1069.6119,397.164706 L1069.6119,400.270588 C1069.6119,406.294148 1074.42771,411.564683 1084.05949,416.082353 L1115.22096,431.894118 C1125.0416,436.223551 1131.79318,441.352912 1135.47592,447.282353 C1139.15866,453.211794 1141,460.882306 1141,470.294118 C1141,494.764828 1126.93026,507 1098.79037,507 Z" id="Path" fill="url(#linearGradient-2)" fill-rule="nonzero"></path>
            <path d="M377,385.335616 L377,346.131824 C377,342.816064 378.641728,341.158209 381.925234,341.158209 L403.074766,341.158209 C406.358272,341.158209 408,342.816064 408,346.131824 L408,385.335616 C408,408.350892 406.551416,433.023678 403.654206,459.354715 C403.074763,462.865519 401.336463,464.620896 398.439252,464.620896 L386.560748,464.620896 C383.663537,464.620896 381.925237,462.865519 381.345794,459.354715 C378.448584,433.023678 377,408.350892 377,385.335616 Z M408,488.897063 L408,524.234184 C408,527.516884 406.481803,529.158209 403.445363,529.158209 L384.372819,529.158209 C381.336379,529.158209 379.818182,527.420335 379.818182,523.944535 L379.818182,488.897063 C379.818182,485.807463 381.336379,484.262687 384.372819,484.262687 L403.445363,484.262687 C406.481803,484.262687 408,485.807463 408,488.897063 Z M350.237391,386.090202 C353.552459,386.090202 355.905101,387.012046 355.905101,391.087092 L355.905101,404.314152 C356.395786,407.841386 354.983616,409.604977 351.668549,409.604977 L322.710607,409.604977 L316.445809,463.395023 L341.629395,463.395023 C344.944462,463.395023 347.394826,464.52632 347.337995,468.685848 L347.394826,481.912908 C347.312347,485.191196 346.432451,486.909798 343.117384,486.909798 L313.574433,486.909798 L309.026791,525.709176 C308.737461,529.23641 307.13029,531 304.20523,531 L290.457521,531 C286.947449,531 285.309844,529.040455 285.544654,525.121306 L290.174076,486.909798 L248.638442,486.909798 L244.0908,525.709176 C243.411461,529.23641 241.511789,531 238.391726,531 L225.229025,531 C221.52395,531 219.983844,529.040455 220.608662,525.121306 L225.238085,486.909798 L199.341005,486.909798 C196.025937,486.909798 195,486.105622 195,482.722426 L195,468.685848 C195,464.611764 196.025937,463.395023 199.341005,463.395023 L227.816956,463.395023 L234.081754,409.604977 L203.022612,409.604977 C199.341005,409.604977 198.452666,407.727358 198.452666,404.314152 L198.452666,391.087092 C198.452666,387.877076 199.341005,386.090202 203.022612,386.090202 L236.95313,386.090202 L241.500772,347.290824 C241.595099,343.76359 243.20227,342 246.322333,342 L259.777538,342 C263.677617,342 265.315223,343.959545 264.690405,347.878694 L260.353487,386.090202 L301.889121,386.090202 L306.436763,347.290824 C306.726094,343.76359 308.625766,342 312.135837,342 L324.713529,342 C328.418604,342 330.153711,343.959545 329.918901,347.878694 L325.289478,386.090202 L350.237391,386.090202 Z M291.709046,463 L298,409 L256.290954,409 L250,463 L291.709046,463 Z" id="Combined-Shape" fill="#FFFFFF"></path>
        </g>
    </g>
</svg>