<svg width="47" height="41" viewBox="0 0 47 41" fill="none" xmlns="http://www.w3.org/2000/svg">
<path d="M0.97849 2.40011C0.983125 1.80714 1.22517 1.23977 1.65235 0.820558C2.07952 0.401349 2.65752 0.163956 3.2615 0.15966L44.6946 0.189452C45.9549 0.190359 46.9753 1.19586 46.9744 2.43318L46.9484 38.5911C46.9438 39.1841 46.7017 39.7514 46.2745 40.1706C45.8474 40.5899 45.2694 40.8273 44.6654 40.8315L3.23228 40.8018C2.627 40.8007 2.04689 40.5638 1.61942 40.1431C1.19194 39.7224 0.952064 39.1523 0.952491 38.558L0.97849 2.40011ZM5.57645 4.67712L5.55372 36.2876L42.3504 36.3141L42.3732 4.70357L5.57645 4.67712ZM10.1728 9.19621L23.9716 9.20613L23.9618 22.7535L10.163 22.7436L10.1728 9.19621ZM14.7691 13.7153L14.7659 18.2311L19.3655 18.2344L19.3687 13.7186L14.7691 13.7153ZM10.1598 27.2594L37.7573 27.2792L37.7541 31.795L10.1566 31.7752L10.1598 27.2594ZM28.5711 9.20944L37.7703 9.21606L37.7671 13.7318L28.5679 13.7252L28.5711 9.20944ZM28.5647 18.241L37.7638 18.2476L37.7606 22.7634L28.5614 22.7568L28.5647 18.241Z" fill="white"/>
</svg>
