<svg width="102" height="96" viewBox="0 0 102 96" fill="none" xmlns="http://www.w3.org/2000/svg">
<path d="M10.2165 75.7914C7.01707 75.7891 4.41606 73.249 4.41831 70.129L4.45516 18.8769C4.4574 15.7569 7.06206 13.2206 10.2615 13.2229L91.7565 13.2815C94.9559 13.2838 97.5569 15.8239 97.5547 18.9439L97.5178 70.1956C97.5156 73.3156 94.9109 75.8519 91.7115 75.8496L10.2165 75.791L10.2165 75.7914Z" fill="#63BCE7"/>
<path d="M93.9503 65.2246C93.9495 66.4216 92.9446 67.4002 91.717 67.3993L10.2224 67.3407C8.99488 67.3398 7.99139 66.3598 7.99226 65.1628L8.02553 18.8795C8.0264 17.6824 9.03129 16.7038 10.2588 16.7047L91.7539 16.7633C92.9814 16.7642 93.9849 17.7442 93.984 18.9413L93.9507 65.2246L93.9503 65.2246Z" fill="#F46275"/>
<path d="M15.6602 65.1683L15.6935 18.885C15.6944 17.6879 16.6993 16.7094 17.9268 16.7102L10.2588 16.7047C9.03129 16.7038 8.0264 17.6824 8.02553 18.8795L7.99226 65.1628C7.99139 66.3598 8.99488 67.3398 10.2224 67.3407L17.8904 67.3462C16.6628 67.3449 15.6594 66.3649 15.6602 65.1683V65.1683Z" fill="#F43075"/>
<path d="M86.2823 65.219L86.3156 18.9358C86.3165 17.7387 85.313 16.7587 84.0854 16.7578L91.7534 16.7633C92.9809 16.7642 93.9844 17.7442 93.9836 18.9413L93.9503 65.2246C93.9494 66.4216 92.9445 67.4002 91.717 67.3993L84.049 67.3938C85.2766 67.3942 86.2815 66.4157 86.2823 65.219Z" fill="#F48875"/>
<path d="M37.6956 75.8113L64.2317 75.8304L64.2261 83.7047L37.6899 83.6856L37.6956 75.8113Z" fill="#F8AF23"/>
<path d="M37.6956 75.8113L45.3635 75.8168L45.3578 83.6911L37.6899 83.6856L37.6956 75.8113Z" fill="#F87023"/>
<path d="M56.5642 75.8248L64.2322 75.8303L64.2265 83.7047L56.5585 83.6992L56.5642 75.8248Z" fill="#F8D323"/>
<path d="M50.9654 73.4585C52.0207 73.4593 52.8767 72.6257 52.8775 71.5966C52.8782 70.5675 52.0234 69.7327 50.9681 69.7319C49.9128 69.7311 49.0568 70.5648 49.056 71.5938C49.0553 72.6229 49.9102 73.4578 50.9654 73.4585Z" fill="#F8AF23"/>
<path d="M72.4754 90.1079L29.4309 90.077L29.4341 85.75C29.4349 84.6067 30.3862 83.6803 31.5586 83.6812L70.3569 83.7091C71.5293 83.7099 72.4793 84.6377 72.4785 85.7809L72.4754 90.1079Z" fill="#9E9E9E"/>
<path d="M39.2265 83.6867L31.5586 83.6812C30.3862 83.6803 29.4349 84.6067 29.4341 85.75L29.4309 90.077L37.0989 90.0825L37.102 85.7555C37.1028 84.6122 38.0542 83.6858 39.2265 83.6867Z" fill="#707070"/>
<path d="M62.6895 83.7036L70.3574 83.7091C71.5298 83.7099 72.4798 84.6377 72.479 85.7809L72.4759 90.1079L64.8079 90.1024L64.811 85.7754C64.8118 84.6322 63.8618 83.7044 62.6895 83.7036Z" fill="#CECECE"/>
<path d="M80.9621 53.9638L20.9967 53.9207C18.8949 53.9192 17.1765 52.2409 17.178 50.1913L17.2107 4.66246C17.2122 2.61283 18.933 0.937089 21.0348 0.9386L80.9998 0.981717C83.1016 0.983228 84.8201 2.66144 84.8186 4.71108L84.7858 50.2399C84.7848 52.2896 83.0639 53.9653 80.9621 53.9638Z" fill="#63BCE7"/>
<path d="M84.8196 4.70948C84.821 2.66067 83.1034 0.98329 81.0025 0.981779L21.0341 0.93866C18.9332 0.937149 17.2132 2.61206 17.2117 4.66087L17.2055 13.2275L84.8138 13.2761L84.82 4.70948L84.8196 4.70948Z" fill="#F46275"/>
<path d="M25.1418 9.65804C26.5976 9.65909 27.7786 8.50907 27.7796 7.0894C27.7806 5.66973 26.6013 4.51802 25.1455 4.51697C23.6897 4.51592 22.5087 5.66594 22.5077 7.08561C22.5067 8.50528 23.686 9.65699 25.1418 9.65804Z" fill="#F8AF23"/>
<path d="M33.2206 9.66372C34.6764 9.66476 35.8574 8.51474 35.8584 7.09508C35.8595 5.67541 34.6801 4.52369 33.2243 4.52265C31.7685 4.5216 30.5876 5.67162 30.5865 7.09129C30.5855 8.51095 31.7648 9.66267 33.2206 9.66372Z" fill="#F8AF23"/>
<path d="M41.2995 9.66951C42.7553 9.67056 43.9363 8.52054 43.9373 7.10088C43.9383 5.68121 42.759 4.52949 41.3032 4.52845C39.8474 4.5274 38.6664 5.67742 38.6654 7.09709C38.6644 8.51675 39.8437 9.66847 41.2995 9.66951Z" fill="#F8AF23"/>
<path d="M78.5818 8.23803L64.059 8.22759C63.5444 8.22722 63.1239 7.81616 63.1243 7.31472L63.1246 6.88906C63.1249 6.38721 63.5465 5.97717 64.0607 5.97754L78.5834 5.98798C79.0981 5.98835 79.5186 6.39941 79.5182 6.90085L79.5179 7.32651C79.518 7.82836 79.0965 8.2384 78.5818 8.23803Z" fill="#9E9E9E"/>
<path d="M22.9539 16.7139L79.0587 16.7542L79.0383 45.1419L22.9334 45.1015L22.9539 16.7139Z" fill="#F8AF23"/>
<path d="M40.4303 35.9198L35.9728 31.2252C35.7979 31.0413 35.7977 30.7572 35.9719 30.5727L40.4375 25.8414C40.531 25.7425 40.6627 25.6859 40.8007 25.686L44.6179 25.6887C45.0476 25.6891 45.2714 26.1873 44.9803 26.4956L41.1296 30.576C40.9554 30.7605 40.9561 31.0446 41.1304 31.2285L44.9655 35.2685C45.2579 35.5767 45.0338 36.0768 44.6032 36.0765L40.7915 36.0737C40.6544 36.074 40.5236 36.018 40.4303 35.9198Z" fill="#63BCE7"/>
<path d="M55.2874 21.1595L50.5402 40.8401C50.4874 41.057 50.2886 41.2105 50.0597 41.2103L47.096 41.2082C46.7775 41.208 46.5429 40.918 46.6162 40.6161L51.3647 20.9356C51.4175 20.7187 51.6163 20.5652 51.8452 20.5653L54.8081 20.5675C55.1261 20.5673 55.3607 20.8573 55.2874 21.1595V21.1595Z" fill="#63BCE7"/>
<path d="M57.2927 25.6982L61.1108 25.701C61.2488 25.7011 61.3804 25.7575 61.4737 25.8569L65.9317 30.5946C66.1056 30.7794 66.1046 31.0634 65.9299 31.2472L61.4665 35.9353C61.373 36.0334 61.2418 36.0892 61.1046 36.0891L57.2921 36.0864C56.8615 36.0861 56.6377 35.5857 56.9309 35.2779L60.7727 31.2435C60.9477 31.0597 60.9484 30.7757 60.7744 30.5909L56.9287 26.505C56.6385 26.1959 56.863 25.6979 57.2927 25.6982V25.6982Z" fill="#63BCE7"/>
<path d="M10.2155 76.4126L37.0583 76.4319L37.0535 83.0644L31.5591 83.0604C30.0373 83.0594 28.7983 84.2659 28.7972 85.7499L28.7946 89.4558L8.36593 89.4411C8.01436 89.4409 7.72883 89.7189 7.72858 90.0618C7.72833 90.4046 8.01347 90.6831 8.36504 90.6833L29.4306 90.6985L72.475 90.7294L93.541 90.7446C93.8926 90.7448 94.1781 90.4668 94.1783 90.1239C94.1786 89.7811 93.8934 89.5026 93.5419 89.5024L73.1132 89.4877L73.1159 85.7818C73.117 84.2977 71.8797 83.0894 70.3579 83.0883L64.8639 83.0844L64.8687 76.4518L91.7114 76.4711C95.2616 76.4737 98.1522 73.6589 98.1547 70.1964L98.1915 18.9443C98.194 15.4819 95.3074 12.6629 91.7573 12.6604L85.4502 12.6558L85.4559 4.71152L85.4559 4.71028C85.4577 2.31365 83.4596 0.36237 81.0024 0.360604L81.0007 0.360602L21.0357 0.317485L21.034 0.317484C18.5768 0.315717 16.576 2.26413 16.5742 4.66075L16.5742 4.66199L16.5685 12.6067L10.2614 12.6022C6.7113 12.5996 3.82068 15.4145 3.81819 18.8769L3.78134 70.1286C3.77885 73.591 6.66542 76.41 10.2155 76.4126V76.4126ZM71.8421 85.7804L71.8394 89.4863L30.0684 89.4563L30.0711 85.7504C30.0716 84.9512 30.7387 84.3016 31.5582 84.3022L37.6891 84.3066L64.2253 84.3257L70.3562 84.3301C71.1761 84.3307 71.8427 84.9817 71.8421 85.7804ZM63.5897 83.0831L38.3273 83.0649L38.3321 76.4328L63.5944 76.4509L63.5897 83.0831ZM17.8414 13.849L84.1755 13.8967L84.1494 50.2395C84.1481 51.952 82.7188 53.3439 80.9626 53.3427L20.9976 53.2996C19.2415 53.2983 17.8141 51.9043 17.8153 50.1918L17.8414 13.849ZM20.9967 54.5418L80.9617 54.5849C83.4202 54.5867 85.4215 52.6378 85.4232 50.2404L85.4468 17.3799L91.7539 17.3845C92.6328 17.3851 93.3478 18.0833 93.3472 18.9409L93.3139 65.2237C93.3133 66.0813 92.5973 66.7784 91.7184 66.7778L10.2225 66.7192C9.34358 66.7186 8.62862 66.0204 8.62924 65.1628L8.66252 18.88C8.66313 18.0224 9.3791 17.3252 10.258 17.3259L16.5651 17.3304L16.5415 50.1904C16.5398 52.5883 18.5383 54.54 20.9967 54.5418ZM80.9994 1.60281C82.7555 1.60407 84.1829 2.99802 84.1817 4.71061L84.176 12.6549L17.8423 12.6072L17.8481 4.66291C17.8493 2.95032 19.2787 1.55843 21.0348 1.55969L80.9994 1.60281ZM5.09201 18.8774C5.094 16.0998 7.4127 13.8419 10.2605 13.844L16.5676 13.8485L16.566 16.0882L10.2589 16.0837C8.67727 16.0825 7.38981 17.3362 7.3887 18.879L7.35542 65.1619C7.35431 66.7047 8.63997 67.9603 10.2216 67.9614L91.7171 68.02C93.2987 68.0212 94.5862 66.7675 94.5873 65.2246L94.6206 18.9418C94.6217 17.399 93.336 16.1434 91.7544 16.1423L85.4473 16.1377L85.4489 13.898L91.756 13.9026C94.6038 13.9046 96.9193 16.1659 96.9173 18.9434L96.8804 70.1951C96.8784 72.9727 94.5597 75.2306 91.7119 75.2285L64.2323 75.2088L37.6961 75.1897L10.2164 75.1699C7.36861 75.1679 5.05316 72.9066 5.05516 70.1291L5.09201 18.8774Z" fill="white"/>
<path d="M50.965 74.0797C52.37 74.0807 53.5134 72.9672 53.5144 71.5971C53.5154 70.2269 52.3736 69.1119 50.9685 69.1108C49.5635 69.1098 48.4201 70.2233 48.4191 71.5934C48.4181 72.9636 49.5599 74.0786 50.965 74.0797ZM50.9676 70.353C51.6699 70.3535 52.2411 70.9113 52.2406 71.5962C52.2401 72.281 51.6682 72.838 50.9659 72.8374C50.2636 72.8369 49.6924 72.2792 49.6929 71.5943C49.6934 70.9095 50.2653 70.3525 50.9676 70.353Z" fill="white"/>
<path d="M8.36237 94.2216L0.64643 94.216C0.294857 94.2158 0.00932141 94.4938 0.00907489 94.8367C0.00882837 95.1795 0.293963 95.458 0.645537 95.4582L8.36147 95.4638C8.71305 95.464 8.99858 95.186 8.99883 94.8431C8.99908 94.5003 8.71394 94.2218 8.36237 94.2216Z" fill="white"/>
<path d="M101.254 94.2884L93.5385 94.2828C93.1869 94.2826 92.9014 94.5606 92.9012 94.9034C92.9009 95.2463 93.1861 95.5248 93.5376 95.525L101.254 95.5306C101.605 95.5308 101.891 95.2528 101.891 94.9099C101.891 94.5671 101.606 94.2886 101.254 94.2884Z" fill="white"/>
<path d="M87.3765 94.2784L14.5244 94.226C14.1728 94.2257 13.8873 94.5038 13.887 94.8466C13.8868 95.1895 14.1719 95.4679 14.5235 95.4682L87.3756 95.5206C87.7272 95.5208 88.0127 95.2428 88.013 94.8999C88.0132 94.5571 87.7281 94.2786 87.3765 94.2784Z" fill="white"/>
<path d="M0.648955 90.6774L3.96216 90.6798C4.31373 90.6801 4.59927 90.402 4.59951 90.0592C4.59976 89.7163 4.31462 89.4378 3.96305 89.4376L0.649849 89.4352C0.298275 89.435 0.0127394 89.713 0.0124929 90.0559C0.0122463 90.3987 0.297382 90.6772 0.648955 90.6774V90.6774Z" fill="white"/>
<path d="M97.3072 90.1258C97.3069 90.4687 97.5921 90.7471 97.9436 90.7474L101.257 90.7498C101.608 90.75 101.894 90.472 101.894 90.1291C101.894 89.7863 101.609 89.5078 101.258 89.5075L97.9445 89.5052C97.593 89.5049 97.3074 89.783 97.3072 90.1258Z" fill="white"/>
<path d="M25.1413 10.2788C26.9459 10.2801 28.4148 8.84927 28.416 7.08948C28.4173 5.32969 26.9505 3.89721 25.1459 3.89591C23.3413 3.89461 21.872 5.32499 21.8708 7.08478C21.8695 8.84457 23.3367 10.2775 25.1413 10.2788ZM25.145 5.13811C26.2473 5.1389 27.143 6.01365 27.1422 7.08857C27.1415 8.16349 26.2445 9.03736 25.1422 9.03656C24.0399 9.03577 23.1438 8.16061 23.1446 7.08569C23.1453 6.01077 24.0432 5.13732 25.145 5.13811Z" fill="white"/>
<path d="M33.2202 10.2846C35.0248 10.2859 36.4941 8.85507 36.4954 7.09528C36.4967 5.33549 35.0294 3.903 33.2248 3.90171C31.4203 3.90041 29.9514 5.33079 29.9501 7.09058C29.9488 8.85036 31.4157 10.2833 33.2202 10.2846ZM33.2239 5.14391C34.3262 5.1447 35.2224 6.01944 35.2216 7.09437C35.2208 8.16929 34.3234 9.04315 33.2211 9.04236C32.1189 9.04157 31.2231 8.16641 31.2239 7.09149C31.2247 6.01657 32.1217 5.14312 33.2239 5.14391Z" fill="white"/>
<path d="M41.2993 10.2904C43.1039 10.2917 44.5732 8.86087 44.5744 7.10108C44.5757 5.34129 43.1084 3.9088 41.3039 3.9075C39.4993 3.90621 38.03 5.33658 38.0287 7.09637C38.0274 8.85616 39.4947 10.2891 41.2993 10.2904ZM41.303 5.14971C42.4053 5.1505 43.3014 6.02524 43.3006 7.10016C43.2998 8.17508 42.4024 9.04895 41.3002 9.04816C40.1979 9.04737 39.3018 8.17221 39.3025 7.09729C39.3033 6.02237 40.2007 5.14892 41.303 5.14971Z" fill="white"/>
<path d="M64.0591 8.84884L78.5819 8.85928C79.4489 8.8599 80.1547 8.17264 80.1553 7.32712L80.1556 6.90145C80.1562 6.05593 79.4514 5.36724 78.5844 5.36661L64.0616 5.35617C63.1945 5.35555 62.4888 6.04322 62.4882 6.88875L62.4878 7.31441C62.4868 8.15994 63.192 8.84821 64.0591 8.84884ZM63.7616 6.88967C63.7617 6.73149 63.8985 6.59826 64.0603 6.59838L78.5831 6.60882C78.7448 6.60893 78.8815 6.74236 78.8813 6.90054L78.881 7.3262C78.8809 7.48396 78.7441 7.61719 78.5823 7.61707L64.0595 7.60663C63.8978 7.60652 63.7611 7.47309 63.7612 7.31533L63.7616 6.88967Z" fill="white"/>
<path d="M22.933 45.7226L79.0383 45.763C79.3898 45.7632 79.6754 45.4852 79.6756 45.1423L79.696 16.7546C79.6963 16.4118 79.4112 16.1333 79.0596 16.1331L22.9543 16.0927C22.6027 16.0925 22.3172 16.3705 22.3169 16.7134L22.2965 45.1011C22.2963 45.4439 22.581 45.7224 22.933 45.7226V45.7226ZM23.5903 17.3354L78.4218 17.3748L78.4023 44.5203L23.5708 44.4809L23.5903 17.3354Z" fill="white"/>
<path d="M45.6527 25.7279C45.4726 25.3273 45.0668 25.0682 44.618 25.0679L40.8008 25.0652C40.4862 25.065 40.1829 25.1939 39.9683 25.4207L35.5032 30.1519C35.1071 30.5715 35.1079 31.2278 35.5055 31.6467L39.963 36.3413C40.176 36.5659 40.4783 36.6949 40.7916 36.6951L44.6037 36.6978C45.0534 36.6982 45.4603 36.4388 45.6402 36.0369C45.8201 35.635 45.7389 35.1678 45.4339 34.8467L41.6887 30.9017L45.4494 26.9165C45.7528 26.595 45.8329 26.1284 45.6527 25.7279ZM40.8978 35.4977C40.8978 35.4973 40.8978 35.4977 40.8978 35.4977C40.8982 35.4977 40.8982 35.4977 40.8978 35.4977ZM40.6613 30.1556C40.2653 30.5752 40.2661 31.2315 40.6636 31.6504L44.276 35.4554L40.8553 35.4529L36.5302 30.898L40.8628 26.3074L44.2902 26.3099L40.6613 30.1556Z" fill="white"/>
<path d="M54.8079 19.9459L51.845 19.9437C51.3185 19.9434 50.8657 20.2921 50.7443 20.7926L45.9962 40.4719C45.9161 40.8015 45.9932 41.1431 46.2087 41.4095C46.4246 41.6759 46.7476 41.8285 47.0954 41.8288L50.0587 41.8309C50.5852 41.8313 51.0381 41.4826 51.1595 40.982L55.9067 21.3019C55.9868 20.9719 55.9089 20.6307 55.6934 20.3647C55.4779 20.0987 55.1553 19.9461 54.8079 19.9459V19.9459ZM49.9462 40.5886L47.2776 40.5867L51.9579 21.1864L54.6257 21.1883L49.9462 40.5886Z" fill="white"/>
<path d="M61.9429 25.4365C61.7299 25.2098 61.4264 25.08 61.1109 25.0798L57.2929 25.077C56.844 25.0767 56.4379 25.3352 56.2572 25.7355C56.0764 26.1358 56.1564 26.6025 56.4593 26.924L60.2159 30.915L56.4642 34.8547C56.1583 35.1758 56.0768 35.6428 56.2561 36.045C56.4359 36.4472 56.8425 36.7071 57.2917 36.7074L61.1042 36.7101C61.4176 36.7104 61.72 36.5818 61.9329 36.3575L66.3963 31.6698C66.7945 31.2518 66.7962 30.5951 66.4012 30.1746L61.9429 25.4365ZM61.0423 35.4675L57.6208 35.465L61.2391 31.6656C61.6377 31.2473 61.6394 30.5906 61.244 30.1704L57.6193 26.3195L61.0476 26.322L65.3731 30.9187L61.0423 35.4675Z" fill="white"/>
</svg>
