<svg width="38" height="51" viewBox="0 0 38 51" fill="none" xmlns="http://www.w3.org/2000/svg">
<path d="M19.0004 50.1138C23.9673 50.1174 28.7321 48.2825 32.2466 45.0126C35.7611 41.7428 37.7373 37.3059 37.7407 32.6781C37.7421 30.6633 37.1692 28.7295 36.4963 26.9306C32.331 30.7595 29.1684 32.672 27.0035 32.6704C36.9908 16.3916 31.5148 9.40803 16.5394 0.091015C17.7795 11.7247 9.54552 17.0094 6.1924 19.9454C3.45725 22.3391 1.55705 25.4432 0.738188 28.8553C-0.0806782 32.2675 0.219555 35.8302 1.59996 39.0817C2.98036 42.3331 5.37727 45.1233 8.4799 47.0904C11.5825 49.0575 15.2478 50.1109 19.0004 50.1138V50.1138ZM20.803 8.78379C28.8913 15.1876 28.9277 20.1595 22.6678 30.3617C20.7653 33.4616 23.1672 37.3208 27.0001 37.3235C28.7181 37.3248 30.4563 36.8607 32.2923 35.943C31.7469 37.8573 30.732 39.6275 29.3275 41.1142C27.923 42.6008 26.1672 43.7634 24.1985 44.5103C22.2297 45.2572 20.1016 45.568 17.9819 45.4183C15.8622 45.2687 13.8086 44.6625 11.983 43.6477C10.1573 42.6329 8.60932 41.2371 7.46097 39.5702C6.31262 37.9033 5.59523 36.0108 5.36528 34.0417C5.13534 32.0726 5.39911 30.0807 6.13584 28.2229C6.87258 26.365 8.06215 24.692 9.61089 23.3354C9.92571 23.0611 11.5223 21.743 11.5922 21.6849C12.6516 20.8016 13.5236 20.0182 14.3857 19.1603C17.4593 16.0961 19.6691 12.6962 20.8005 8.78379L20.803 8.78379Z" fill="white"/>
</svg>
