<svg width="45" height="51" viewBox="0 0 45 51" fill="none" xmlns="http://www.w3.org/2000/svg">
<path d="M26.7547 50.0066L21.1263 41.492L10.6622 41.4845C10.1285 41.4841 9.61689 41.2276 9.23984 40.7713C8.86278 40.315 8.65121 39.6964 8.65168 39.0515L8.67073 12.5546C8.67119 11.9097 8.88365 11.2914 9.26136 10.8356C9.63907 10.3799 10.1511 10.1241 10.6848 10.1244L42.8819 10.1476C43.4156 10.148 43.9273 10.4045 44.3043 10.8608C44.6814 11.3171 44.893 11.9357 44.8925 12.5806L44.8734 39.0775C44.873 39.7224 44.6605 40.3408 44.2828 40.7965C43.9051 41.2522 43.3931 41.508 42.8594 41.5077L32.3953 41.5001L26.7547 50.0066ZM30.465 36.6356L40.8506 36.6431L40.8661 15.0093L12.6936 14.989L12.6781 36.6228L23.0637 36.6303L26.7603 42.2207L30.465 36.6356ZM2.64269 0.141889L36.8521 0.166487L36.8486 5.02964L4.65151 5.00649L4.63228 31.7539L0.607642 31.751L0.628623 2.57202C0.629086 1.92713 0.841543 1.3088 1.21925 0.853058C1.59697 0.39732 2.10899 0.141505 2.64269 0.141889V0.141889Z" fill="white"/>
</svg>
