<svg width="46" height="54" viewBox="0 0 46 54" fill="none" xmlns="http://www.w3.org/2000/svg">
<path d="M8.62354 38.3052H41.25V5.77893H4.58333V42.0593L8.62354 38.3052ZM10.2094 43.7263L0 53.2131V3.06841C0 2.34953 0.241443 1.6601 0.671213 1.15177C1.10098 0.643452 1.68388 0.35788 2.29167 0.35788H43.5416C44.1494 0.35788 44.7323 0.643452 45.1621 1.15177C45.5919 1.6601 45.8333 2.34953 45.8333 3.06841V41.0158C45.8333 41.7346 45.5919 42.4241 45.1621 42.9324C44.7323 43.4407 44.1494 43.7263 43.5416 43.7263H10.2094ZM20.625 30.1737H25.2083V35.5947H20.625V30.1737ZM15.0494 16.1142C15.3471 14.3518 16.0619 12.7256 17.1105 11.4249C18.1591 10.1242 19.4984 9.20244 20.9727 8.7669C22.4469 8.33136 23.9954 8.39994 25.4379 8.96465C26.8805 9.52937 28.1578 10.567 29.1212 11.9568C30.0847 13.3466 30.6946 15.0315 30.8801 16.8153C31.0656 18.5991 30.8189 20.4085 30.1689 22.033C29.5189 23.6575 28.4922 25.0303 27.2083 25.9916C25.9245 26.9529 24.4362 27.4632 22.9167 27.4631H20.625V22.0421H22.9167C23.5677 22.042 24.2053 21.8233 24.7553 21.4114C25.3053 20.9995 25.7452 20.4113 26.0236 19.7153C26.3021 19.0193 26.4077 18.2441 26.3282 17.4798C26.2487 16.7156 25.9874 15.9938 25.5746 15.3983C25.1618 14.8029 24.6146 14.3584 23.9965 14.1164C23.3785 13.8745 22.7151 13.8451 22.0835 14.0317C21.4519 14.2183 20.878 14.6132 20.4287 15.1704C19.9795 15.7277 19.6732 16.4243 19.5456 17.1794L15.0494 16.1142Z" fill="white"/>
</svg>
