<svg width="41" height="46" viewBox="0 0 41 46" fill="none" xmlns="http://www.w3.org/2000/svg">
<path d="M32.062 33.0165L40.6281 42.6885L37.798 45.8847L29.234 36.2104C26.0475 39.0953 22.084 40.6645 18 40.6579C8.06401 40.6579 0 31.5505 0 20.3289C0 9.10737 8.06401 0 18 0C27.936 0 36 9.10737 36 20.3289C36.0059 24.9414 34.6165 29.4177 32.062 33.0165ZM28.05 31.3405C30.5883 28.3925 32.0058 24.4409 32 20.3289C32 11.592 25.734 4.51754 18 4.51754C10.264 4.51754 4.00001 11.592 4.00001 20.3289C4.00001 29.0636 10.264 36.1404 18 36.1404C21.6409 36.1468 25.1398 34.5459 27.75 31.6793L28.05 31.3405ZM20.356 11.6914C19.7663 11.9923 19.25 12.4502 18.8514 13.026C18.4528 13.6018 18.1839 14.2782 18.0677 14.9971C17.9515 15.7161 17.9915 16.4562 18.1842 17.1539C18.3769 17.8515 18.7167 18.486 19.1743 19.0028C19.6318 19.5196 20.1936 19.9033 20.8114 20.1209C21.4291 20.3386 22.0844 20.3838 22.721 20.2525C23.3576 20.1213 23.9565 19.8175 24.4663 19.3674C24.9761 18.9173 25.3816 18.3342 25.648 17.6681C26.1736 19.5963 26.1127 21.6676 25.475 23.5521C24.8373 25.4366 23.6594 27.0258 22.1291 28.0666C20.5989 29.1073 18.8042 29.5397 17.0311 29.2948C15.2579 29.0499 13.6084 28.1419 12.3453 26.7153C11.0822 25.2888 10.2781 23.4258 10.0613 21.4233C9.84447 19.4207 10.2273 17.3939 11.1488 15.6656C12.0703 13.9373 13.4775 12.6071 15.1461 11.8868C16.8147 11.1666 18.6488 11.0978 20.356 11.6914Z" fill="white"/>
</svg>
