<svg width="40" height="56" viewBox="0 0 40 56" fill="none" xmlns="http://www.w3.org/2000/svg">
<path d="M8.47375 40.26C5.00241 37.6057 2.40062 33.822 1.04533 29.4571C-0.309951 25.0921 -0.348334 20.3727 0.935743 15.9825C2.21982 11.5923 4.75967 7.75943 8.18729 5.03917C11.6149 2.3189 15.7523 0.852539 20 0.852539C24.2477 0.852539 28.3851 2.3189 31.8127 5.03917C35.2403 7.75943 37.7802 11.5923 39.0643 15.9825C40.3483 20.3727 40.3099 25.0921 38.9547 29.4571C37.5994 33.822 34.9976 37.6057 31.5262 40.26L36.7337 53.1629C36.8174 53.3694 36.8521 53.5953 36.8349 53.8201C36.8176 54.0449 36.7489 54.2615 36.635 54.4502C36.521 54.6389 36.3654 54.7938 36.1823 54.9008C35.9991 55.0078 35.7943 55.0636 35.5863 55.0631H4.41125C4.20354 55.0634 3.99902 55.0076 3.81619 54.9007C3.63336 54.7938 3.47797 54.6392 3.36408 54.4509C3.25018 54.2626 3.18136 54.0464 3.16385 53.822C3.14633 53.5976 3.18067 53.372 3.26375 53.1656L8.47125 40.26H8.47375ZM25.3112 38.3815L28.6412 35.8308C31.2456 33.8406 33.1978 31.003 34.215 27.7292C35.2322 24.4553 35.2616 20.9153 34.2988 17.6222C33.3361 14.329 31.4313 11.4538 28.8604 9.41317C26.2895 7.37254 23.1861 6.27252 20 6.27252C16.8139 6.27252 13.7105 7.37254 11.1396 9.41317C8.56874 11.4538 6.66391 14.329 5.70117 17.6222C4.73843 20.9153 4.76779 24.4553 5.78501 27.7292C6.80222 31.003 8.75443 33.8406 11.3587 35.8308L14.6862 38.3815L10.1437 49.6417H29.8537L25.3112 38.3815ZM10.2962 25.1642L15.1462 23.8495C15.4154 25.0242 16.0394 26.0675 16.9188 26.8131C17.7982 27.5587 18.8824 27.9638 19.9987 27.9638C21.1151 27.9638 22.1993 27.5587 23.0787 26.8131C23.9581 26.0675 24.5821 25.0242 24.8512 23.8495L29.7012 25.1642C29.1574 27.5076 27.9075 29.587 26.1498 31.0726C24.3922 32.5582 22.2274 33.365 19.9987 33.365C17.7701 33.365 15.6053 32.5582 13.8477 31.0726C12.09 29.587 10.8401 27.5076 10.2962 25.1642Z" fill="white"/>
</svg>
